<?xml version="1.0" encoding="UTF-8"?>
<svg width="776px" height="388px" viewBox="0 0 776 388" version="1.1" xmlns="http://www.w3.org/2000/svg" xmlns:xlink="http://www.w3.org/1999/xlink">
    <!-- Generator: Sketch 54.1 (76490) - https://sketchapp.com -->
    <title>Group</title>
    <desc>Created with Sketch.</desc>
    <g id="Page-1" stroke="none" stroke-width="1" fill="none" fill-rule="evenodd">
        <g id="Group" fill-rule="nonzero">
            <g id="bowl3" fill="#FFBC00">
                <path d="M0,0 L776,0 C776,214.286483 602.286483,388 388,388 C173.713517,388 0,214.286483 0,0 Z" id="Combined-Shape"></path>
            </g>
            <path d="M35.1875,43.9609375 C35.1875,41.5729047 35.7070261,39.2487092 36.7460938,36.9882812 C37.7851614,34.7278533 39.1204346,32.8229244 40.7519531,31.2734375 C40.8977872,31.1458327 41.0595694,31.0820312 41.2373047,31.0820312 C41.41504,31.0820312 41.5608718,31.132161 41.6748047,31.2324219 C41.7887375,31.3326828 41.8457031,31.428385 41.8457031,31.5195312 C41.8457031,31.6106775 41.7636727,31.7656239 41.5996094,31.984375 C38.5917818,35.1380366 37.0878906,39.1301842 37.0878906,43.9609375 C37.0878906,48.7461177 38.6100108,52.7428225 41.6542969,55.9511719 C41.7819017,56.0787767 41.8457031,56.2154941 41.8457031,56.3613281 C41.8457031,56.5071622 41.7727872,56.623372 41.6269531,56.7099609 C41.4811191,56.7965499 41.3444017,56.8398438 41.2167969,56.8398438 C41.0891921,56.8398438 40.9342457,56.7669278 40.7519531,56.6210938 C38.9928297,55.0351483 37.6256559,53.2509865 36.6503906,51.2685547 C35.6751253,49.2861229 35.1875,46.8502749 35.1875,43.9609375 Z M55.0560491,46.2851562 C55.0560491,48.0898528 54.5570306,49.5458929 53.5589788,50.6533203 C52.5609269,51.7607477 51.1732455,52.3144531 49.3958928,52.3144531 C48.3932836,52.3144531 47.7461547,52.266602 47.4544866,52.1708984 C47.1628185,52.0751948 46.9987576,52.0273438 46.9622991,52.0273438 C46.7253187,52.0273438 46.6068303,52.1777329 46.6068303,52.4785156 L46.6068303,57.6875 C46.6068303,58.4713581 47.2949745,58.8632812 48.6712835,58.8632812 C48.7988883,58.8632812 48.8626897,58.9931628 48.8626897,59.2529297 C48.8626897,59.5126966 48.7988883,59.6425781 48.6712835,59.6425781 C47.89654,59.5696611 46.9304038,59.5332031 45.772846,59.5332031 C44.6152881,59.5332031 43.6719381,59.5696611 42.9427678,59.6425781 C42.815163,59.6425781 42.7513616,59.5126966 42.7513616,59.2529297 C42.7513616,58.9931628 42.815163,58.8632812 42.9427678,58.8632812 C43.9909501,58.8632812 44.5150335,58.4804726 44.5150335,57.7148438 L44.5150335,44.0566406 C44.5150335,42.9264266 44.1231103,42.3613281 43.3392522,42.3613281 C43.1843035,42.3613281 43.1068303,42.2360039 43.1068303,41.9853516 C43.1068303,41.7346993 43.1843035,41.609375 43.3392522,41.609375 C43.6035764,41.609375 44.0547438,41.4270852 44.6927678,41.0625 C45.3307918,40.6979148 45.7477799,40.4176442 45.9437444,40.2216797 C46.1397089,40.0257152 46.308327,39.9277344 46.4496038,39.9277344 C46.5908805,39.9277344 46.6615178,39.9892572 46.6615178,40.1123047 C46.6615178,40.2353522 46.6524033,40.4290351 46.6341741,40.6933594 C46.6159448,40.9576836 46.6068303,41.1582024 46.6068303,41.2949219 C46.6068303,41.4316413 46.6797463,41.5 46.8255803,41.5 C46.907612,41.5 46.9896424,41.463542 47.0716741,41.390625 C47.8373029,40.5338499 48.6895079,40.1054688 49.6283147,40.1054688 C50.6491531,40.1054688 51.5879458,40.4176401 52.444721,41.0419922 C53.3014961,41.6663443 53.9509036,42.3658815 54.3929631,43.140625 C54.8350226,43.9153685 55.0560491,44.9635351 55.0560491,46.2851562 Z M52.6771428,46.2578125 C52.6771428,42.9036291 51.4740299,41.2265625 49.0677678,41.2265625 C48.302139,41.2265625 47.5729796,41.6822871 46.8802678,42.59375 C46.6979752,42.8307304 46.6068303,43.2591115 46.6068303,43.8789062 L46.6068303,49.1972656 C46.6068303,50.6920648 47.4681498,51.4394531 49.1908147,51.4394531 C50.4668627,51.4394531 51.3669189,50.9335988 51.89101,49.921875 C52.4151012,48.9101512 52.6771428,47.6888092 52.6771428,46.2578125 Z M68.8269419,51.5761719 C68.5717323,51.6035158 67.9496682,51.72884 66.960731,51.9521484 C65.9717937,52.1754568 65.3451724,52.3372391 65.0808482,52.4375 C65.0535043,52.4466146 65.0216035,52.4511719 64.985145,52.4511719 C64.839311,52.4511719 64.766395,52.2460958 64.766395,51.8359375 L64.766395,51.2207031 C64.766395,51.001952 64.7139867,50.8925781 64.6091685,50.8925781 C64.5043502,50.8925781 64.379026,50.9609368 64.2331919,51.0976562 C63.3673022,51.9088582 62.3009066,52.3144531 61.0339732,52.3144531 C60.0769371,52.3144531 59.2338466,51.831385 58.5046763,50.8652344 C57.775506,49.8990837 57.4109263,48.9056041 57.4109263,47.8847656 L57.4109263,43.3046875 C57.4109263,41.9648371 56.905072,41.2949219 55.8933482,41.2949219 C55.7566287,41.2949219 55.68827,41.167319 55.68827,40.9121094 C55.68827,40.6568998 55.7566287,40.5292969 55.8933482,40.5292969 C56.8503842,40.5292969 57.6228374,40.4882817 58.210731,40.40625 C58.7986245,40.3242183 59.1791546,40.2832031 59.3523325,40.2832031 C59.5255105,40.2832031 59.6120982,40.3561191 59.6120982,40.5019531 C59.5391811,41.6230525 59.5027232,42.3157539 59.5027232,42.5800781 L59.5027232,47.4335938 C59.5027232,48.4817761 59.6827344,49.3362597 60.0427622,49.9970703 C60.4027901,50.6578809 60.9564955,50.9882812 61.703895,50.9882812 C62.5059824,50.9882812 63.2169128,50.7513045 63.8367075,50.2773438 C64.4565023,49.803383 64.766395,49.22917 64.766395,48.5546875 L64.766395,43.3046875 C64.766395,41.9648371 64.2605407,41.2949219 63.2488169,41.2949219 C63.1120975,41.2949219 63.0437388,41.167319 63.0437388,40.9121094 C63.0437388,40.6568998 63.1120975,40.5292969 63.2488169,40.5292969 C64.3699163,40.5292969 65.1924992,40.4882817 65.7165903,40.40625 C66.2406815,40.3242183 66.5574101,40.2832031 66.6667857,40.2832031 C66.8490782,40.2832031 66.9402232,40.4062488 66.9402232,40.6523438 C66.8855354,41.4453165 66.8581919,42.0787737 66.8581919,42.5527344 L66.8581919,48.8964844 C66.8581919,49.6712278 66.9584513,50.1953111 67.1589732,50.46875 C67.359495,50.7421889 67.5463421,50.8789062 67.71952,50.8789062 C67.892698,50.8789062 68.0863809,50.8652345 68.3005747,50.8378906 C68.5147685,50.8105467 68.6423714,50.796875 68.6833872,50.796875 C68.724403,50.796875 68.7654183,50.8173826 68.8064341,50.8583984 C68.8474499,50.8994143 68.8793506,50.9791661 68.9021372,51.0976562 C68.9249238,51.2161464 68.9363169,51.3072913 68.9363169,51.3710938 C68.9363169,51.4986986 68.8998589,51.5670572 68.8269419,51.5761719 Z M71.7286941,49.0878906 L71.7286941,42.15625 C71.7286941,41.7916648 71.5464043,41.609375 71.1818191,41.609375 L70.1837722,41.609375 C70.0561674,41.609375 69.992366,41.5045583 69.992366,41.2949219 C69.992366,41.0852854 70.0561674,40.9804688 70.1837722,40.9804688 C70.5939305,40.9804688 71.0177544,40.8186865 71.4552566,40.4951172 C71.8927588,40.1715479 72.2573385,39.8160827 72.5490066,39.4287109 C72.8406747,39.0413392 73.0594225,38.6699237 73.2052566,38.3144531 C73.2417151,38.2324215 73.3055166,38.1914062 73.3966628,38.1914062 C73.4878091,38.1914062 73.5812327,38.2141925 73.6769363,38.2597656 C73.7726399,38.3053388 73.820491,38.3691402 73.820491,38.4511719 L73.820491,39.7910156 C73.820491,40.1829447 74.0073381,40.3789062 74.3810378,40.3789062 L77.7169753,40.3789062 C77.8445802,40.3789062 77.9083816,40.5839823 77.9083816,40.9941406 C77.9083816,41.4042989 77.8445802,41.609375 77.7169753,41.609375 L74.3810378,41.609375 C74.0073381,41.609375 73.820491,41.7916648 73.820491,42.15625 L73.820491,47.6660156 C73.820491,48.860032 73.9913877,49.712237 74.3331863,50.2226562 C74.6749849,50.7330755 75.242362,50.9882812 76.0353347,50.9882812 C76.5092954,50.9882812 77.001478,50.8105487 77.5118972,50.4550781 C77.566585,50.4186196 77.6189933,50.4003906 77.6691238,50.4003906 C77.7192542,50.4003906 77.7716626,50.4505203 77.8263503,50.5507812 C77.8810381,50.6510422 77.9083816,50.7330726 77.9083816,50.796875 C77.9083816,50.8606774 77.8992671,50.9062499 77.8810378,50.9335938 C77.115409,51.8541713 76.1128149,52.3144531 74.8732253,52.3144531 C73.7338967,52.3144531 72.9249856,52.0660832 72.4464675,51.5693359 C71.9679495,51.0725887 71.7286941,50.2454485 71.7286941,49.0878906 Z M88.3739954,49.0878906 L88.3739954,42.15625 C88.3739954,41.7916648 88.1917055,41.609375 87.8271204,41.609375 L86.8290735,41.609375 C86.7014687,41.609375 86.6376672,41.5045583 86.6376672,41.2949219 C86.6376672,41.0852854 86.7014687,40.9804688 86.8290735,40.9804688 C87.2392318,40.9804688 87.6630557,40.8186865 88.1005579,40.4951172 C88.5380601,40.1715479 88.9026397,39.8160827 89.1943079,39.4287109 C89.485976,39.0413392 89.7047238,38.6699237 89.8505579,38.3144531 C89.8870164,38.2324215 89.9508178,38.1914062 90.0419641,38.1914062 C90.1331104,38.1914062 90.226534,38.2141925 90.3222376,38.2597656 C90.4179412,38.3053388 90.4657922,38.3691402 90.4657922,38.4511719 L90.4657922,39.7910156 C90.4657922,40.1829447 90.6526393,40.3789062 91.0263391,40.3789062 L94.3622766,40.3789062 C94.4898814,40.3789062 94.5536829,40.5839823 94.5536829,40.9941406 C94.5536829,41.4042989 94.4898814,41.609375 94.3622766,41.609375 L91.0263391,41.609375 C90.6526393,41.609375 90.4657922,41.7916648 90.4657922,42.15625 L90.4657922,47.6660156 C90.4657922,48.860032 90.636689,49.712237 90.9784876,50.2226562 C91.3202861,50.7330755 91.8876633,50.9882812 92.680636,50.9882812 C93.1545967,50.9882812 93.6467793,50.8105487 94.1571985,50.4550781 C94.2118863,50.4186196 94.2642946,50.4003906 94.3144251,50.4003906 C94.3645555,50.4003906 94.4169639,50.4505203 94.4716516,50.5507812 C94.5263394,50.6510422 94.5536829,50.7330726 94.5536829,50.796875 C94.5536829,50.8606774 94.5445684,50.9062499 94.5263391,50.9335938 C93.7607103,51.8541713 92.7581162,52.3144531 91.5185266,52.3144531 C90.379198,52.3144531 89.5702868,52.0660832 89.0917688,51.5693359 C88.6132508,51.0725887 88.3739954,50.2454485 88.3739954,49.0878906 Z M107.435904,50.2636719 C107.435904,50.9746129 108.014674,51.3300781 109.172232,51.3300781 C109.299837,51.3300781 109.363638,51.4599596 109.363638,51.7197266 C109.363638,51.9794935 109.299837,52.109375 109.172232,52.109375 C108.424832,52.036458 107.522498,52 106.465201,52 C105.407904,52 104.519241,52.036458 103.799185,52.109375 C103.67158,52.109375 103.607779,51.9794935 103.607779,51.7197266 C103.607779,51.4599596 103.67158,51.3300781 103.799185,51.3300781 C104.829138,51.3300781 105.344107,50.9746129 105.344107,50.2636719 L105.344107,44.5214844 C105.344107,43.6373654 105.075229,42.8854198 104.537466,42.265625 C103.999703,41.6458302 103.348017,41.3359375 102.582388,41.3359375 C101.816759,41.3359375 101.142287,41.5683571 100.558951,42.0332031 C99.9756144,42.4980492 99.6839507,42.9537738 99.6839507,43.4003906 L99.6839507,50.2636719 C99.6839507,50.9746129 100.189805,51.3300781 101.201529,51.3300781 C101.329134,51.3300781 101.392935,51.4599596 101.392935,51.7197266 C101.392935,51.9794935 101.329134,52.109375 101.201529,52.109375 C100.244493,52.036458 99.3102573,52 98.3987944,52 C97.4873316,52 96.6670273,52.036458 95.9378569,52.109375 C95.8102521,52.109375 95.7464507,51.9794935 95.7464507,51.7197266 C95.7464507,51.4599596 95.8102521,51.3300781 95.9378569,51.3300781 C97.040727,51.3300781 97.5921538,50.9746129 97.5921538,50.2636719 L97.5921538,35.9492188 C97.5921538,34.6822853 97.1728872,34.0488281 96.3343413,34.0488281 C96.1793926,34.0488281 96.1019194,33.9235039 96.1019194,33.6728516 C96.1019194,33.4221993 96.1793926,33.296875 96.3343413,33.296875 C96.6351241,33.296875 97.0794556,33.1419286 97.6673491,32.8320312 C98.2552427,32.5221339 98.6995742,32.2486991 99.0003569,32.0117188 C99.2920251,31.7747384 99.4925439,31.65625 99.6019194,31.65625 C99.711295,31.65625 99.7659819,31.6972652 99.7659819,31.7792969 C99.7659819,31.8613285 99.7523102,32.1461564 99.7249663,32.6337891 C99.6976224,33.1214217 99.6839507,33.6295546 99.6839507,34.1582031 L99.6839507,41.1855469 C99.6839507,41.4134126 99.7568666,41.5273438 99.9027007,41.5273438 C99.9847324,41.5273438 100.062206,41.4908858 100.135123,41.4179688 C100.964554,40.5429644 102.06285,40.1054688 103.430044,40.1054688 C104.751666,40.1054688 105.749703,40.5862582 106.424185,41.5478516 C107.098668,42.5094449 107.435904,43.4915314 107.435904,44.4941406 L107.435904,50.2636719 Z M110.310312,46.1074219 C110.310312,44.4850179 110.82756,43.0791075 111.86207,41.8896484 C112.89658,40.7001894 114.0564,40.1054688 115.341562,40.1054688 C116.626725,40.1054688 117.665777,40.5520789 118.45875,41.4453125 C119.251722,42.3385461 119.648203,43.0677055 119.648203,43.6328125 C119.648203,44.1979195 119.415783,44.485026 118.950937,44.4941406 L112.812265,44.4941406 C112.538827,44.4941406 112.402109,44.7949189 112.402109,45.3964844 C112.402109,46.854825 112.750738,48.1057891 113.448008,49.1494141 C114.145277,50.1930391 115.109134,50.7148438 116.339609,50.7148438 C117.260187,50.7148438 118.176193,50.441409 119.087656,49.8945312 C119.133229,49.8671874 119.183359,49.8535156 119.238047,49.8535156 C119.347422,49.8535156 119.443124,49.9036453 119.525156,50.0039062 C119.588958,50.0677087 119.620859,50.1634108 119.620859,50.2910156 C119.620859,50.3365888 119.60263,50.3730467 119.566172,50.4003906 C118.12606,51.6764387 116.708757,52.3144531 115.314219,52.3144531 C113.91968,52.3144531 112.737075,51.6855532 111.766367,50.4277344 C110.795659,49.1699156 110.310312,47.7298258 110.310312,46.1074219 Z M112.716562,43.3867188 C112.716562,43.5143236 112.825936,43.578125 113.044687,43.578125 L117.433359,43.578125 C117.570079,43.578125 117.638437,43.5006518 117.638437,43.3457031 C117.638437,42.9446595 117.390067,42.4388051 116.89332,41.828125 C116.396573,41.2174449 115.879325,40.9121094 115.341562,40.9121094 C114.749111,40.9121094 114.236421,41.1103496 113.803476,41.5068359 C113.370531,41.9033223 113.021902,42.4615849 112.757578,43.1816406 C112.730234,43.2545577 112.716562,43.3229163 112.716562,43.3867188 Z M130.783739,50.2636719 L130.783739,42.0605469 C130.783739,41.7233056 130.61512,41.5546875 130.277879,41.5546875 L129.26616,41.5546875 C129.129441,41.5546875 129.061082,41.4293632 129.061082,41.1787109 C129.061082,40.9280586 129.129441,40.8027344 129.26616,40.8027344 C130.277884,40.8027344 130.783739,40.4108112 130.783739,39.6269531 L130.783739,39.3671875 C130.783739,37.0885303 131.42631,35.2360097 132.711473,33.8095703 C133.996636,32.3831309 135.500527,31.6699219 137.223192,31.6699219 C137.706267,31.6699219 138.143763,31.7291661 138.535692,31.8476562 C138.918506,31.9661464 139.219284,32.143879 139.438035,32.3808594 C139.656787,32.6087251 139.76616,32.9140606 139.76616,33.296875 C139.76616,33.5703139 139.640836,33.8300769 139.390184,34.0761719 C139.139532,34.3222669 138.872933,34.4453125 138.590379,34.4453125 C138.07996,34.4453125 137.617399,34.1969426 137.202684,33.7001953 C136.787968,33.203448 136.334522,32.9550781 135.842332,32.9550781 C134.876182,32.9550781 134.140186,33.342444 133.634324,34.1171875 C133.128463,34.891931 132.875535,35.8352809 132.875535,36.9472656 L132.875535,39.8730469 C132.875535,40.2102881 133.044154,40.3789062 133.381395,40.3789062 L138.316942,40.3789062 C138.854705,40.3789062 139.308151,40.3037117 139.677293,40.1533203 C140.046436,40.0029289 140.262905,39.9277344 140.326707,39.9277344 C140.490771,39.9277344 140.568244,40.0416655 140.559129,40.2695312 C140.522671,40.9440138 140.504442,41.4088529 140.504442,41.6640625 C140.504442,41.9192721 140.565964,42.046875 140.689012,42.046875 C140.812059,42.046875 140.937384,41.9557301 141.064989,41.7734375 C141.876191,40.6614528 142.846884,40.1054688 143.977098,40.1054688 C144.268766,40.1054688 144.5103,40.1555985 144.701707,40.2558594 C144.893115,40.3561203 145.070847,40.5110667 145.23491,40.7207031 C145.398974,40.9303396 145.481004,41.2356751 145.481004,41.6367188 C145.481004,41.7460943 145.435432,41.9033193 145.344285,42.1083984 C145.253139,42.3134776 145.111865,42.4866529 144.920457,42.6279297 C144.72905,42.7692064 144.535367,42.8398438 144.339403,42.8398438 C144.143438,42.8398438 143.838103,42.7281912 143.423387,42.5048828 C143.008671,42.2815744 142.6965,42.1699219 142.486864,42.1699219 C141.930871,42.1699219 141.461475,42.4456353 141.07866,42.9970703 C140.695846,43.5485054 140.504442,44.2981723 140.504442,45.2460938 L140.504442,50.2636719 C140.504442,50.9746129 141.192586,51.3300781 142.568895,51.3300781 C142.6965,51.3300781 142.760301,51.4599596 142.760301,51.7197266 C142.760301,51.9794935 142.6965,52.109375 142.568895,52.109375 C141.803266,52.036458 140.846244,52 139.697801,52 C138.549358,52 137.596893,52.036458 136.840379,52.109375 C136.712774,52.109375 136.648973,51.9794935 136.648973,51.7197266 C136.648973,51.4599596 136.712774,51.3300781 136.840379,51.3300781 C137.888561,51.3300781 138.412645,50.9746129 138.412645,50.2636719 L138.412645,41.5546875 L133.381395,41.5546875 C133.044154,41.5546875 132.875535,41.7233056 132.875535,42.0605469 L132.875535,50.2636719 C132.875535,50.9746129 133.550008,51.3300781 134.898973,51.3300781 C135.026578,51.3300781 135.090379,51.4599596 135.090379,51.7197266 C135.090379,51.9794935 135.026578,52.109375 134.898973,52.109375 C134.124229,52.036458 133.162651,52 132.014207,52 C130.865764,52 129.922414,52.036458 129.184129,52.109375 C129.056524,52.109375 128.992723,51.9794935 128.992723,51.7197266 C128.992723,51.4599596 129.056524,51.3300781 129.184129,51.3300781 C130.250541,51.3300781 130.783739,50.9746129 130.783739,50.2636719 Z M159.224553,51.5761719 C158.969344,51.6035158 158.34728,51.72884 157.358342,51.9521484 C156.369405,52.1754568 155.742784,52.3372391 155.47846,52.4375 C155.451116,52.4466146 155.419215,52.4511719 155.382756,52.4511719 C155.236922,52.4511719 155.164006,52.2460958 155.164006,51.8359375 L155.164006,51.2207031 C155.164006,51.001952 155.111598,50.8925781 155.00678,50.8925781 C154.901962,50.8925781 154.776637,50.9609368 154.630803,51.0976562 C153.764914,51.9088582 152.698518,52.3144531 151.431585,52.3144531 C150.474548,52.3144531 149.631458,51.831385 148.902288,50.8652344 C148.173117,49.8990837 147.808538,48.9056041 147.808538,47.8847656 L147.808538,43.3046875 C147.808538,41.9648371 147.302683,41.2949219 146.29096,41.2949219 C146.15424,41.2949219 146.085881,41.167319 146.085881,40.9121094 C146.085881,40.6568998 146.15424,40.5292969 146.29096,40.5292969 C147.247996,40.5292969 148.020449,40.4882817 148.608342,40.40625 C149.196236,40.3242183 149.576766,40.2832031 149.749944,40.2832031 C149.923122,40.2832031 150.00971,40.3561191 150.00971,40.5019531 C149.936792,41.6230525 149.900335,42.3157539 149.900335,42.5800781 L149.900335,47.4335938 C149.900335,48.4817761 150.080346,49.3362597 150.440374,49.9970703 C150.800401,50.6578809 151.354107,50.9882812 152.101506,50.9882812 C152.903594,50.9882812 153.614524,50.7513045 154.234319,50.2773438 C154.854114,49.803383 155.164006,49.22917 155.164006,48.5546875 L155.164006,43.3046875 C155.164006,41.9648371 154.658152,41.2949219 153.646428,41.2949219 C153.509709,41.2949219 153.44135,41.167319 153.44135,40.9121094 C153.44135,40.6568998 153.509709,40.5292969 153.646428,40.5292969 C154.767528,40.5292969 155.590111,40.4882817 156.114202,40.40625 C156.638293,40.3242183 156.955021,40.2832031 157.064397,40.2832031 C157.24669,40.2832031 157.337835,40.4062488 157.337835,40.6523438 C157.283147,41.4453165 157.255803,42.0787737 157.255803,42.5527344 L157.255803,48.8964844 C157.255803,49.6712278 157.356063,50.1953111 157.556585,50.46875 C157.757106,50.7421889 157.943953,50.8789062 158.117131,50.8789062 C158.290309,50.8789062 158.483992,50.8652345 158.698186,50.8378906 C158.91238,50.8105467 159.039983,50.796875 159.080999,50.796875 C159.122014,50.796875 159.16303,50.8173826 159.204045,50.8583984 C159.245061,50.8994143 159.276962,50.9791661 159.299749,51.0976562 C159.322535,51.2161464 159.333928,51.3072913 159.333928,51.3710938 C159.333928,51.4986986 159.29747,51.5670572 159.224553,51.5761719 Z M165.872399,52.109375 C165.179687,52.036458 164.327482,52 163.315759,52 C162.304035,52 161.429044,52.036458 160.690759,52.109375 C160.563154,52.109375 160.499352,51.9794935 160.499352,51.7197266 C160.499352,51.4599596 160.563154,51.3300781 160.690759,51.3300781 C161.720712,51.3300781 162.23568,50.9746129 162.23568,50.2636719 L162.23568,44.1933594 C162.23568,42.9355406 161.816414,42.3066406 160.977868,42.3066406 C160.822919,42.3066406 160.745446,42.1790377 160.745446,41.9238281 C160.745446,41.6686185 160.822919,41.5410156 160.977868,41.5410156 C161.278651,41.5410156 161.722982,41.3860693 162.310876,41.0761719 C162.898769,40.7662745 163.343101,40.497397 163.643884,40.2695312 C163.944666,40.0416655 164.145185,39.9277344 164.245446,39.9277344 C164.354822,39.9277344 164.409509,40.0006503 164.409509,40.1464844 C164.354821,41.1308643 164.327477,41.8873671 164.327477,42.4160156 L164.327477,50.2636719 C164.327477,50.9746129 164.842446,51.3300781 165.872399,51.3300781 C166.000004,51.3300781 166.063805,51.4599596 166.063805,51.7197266 C166.063805,51.9794935 166.000004,52.109375 165.872399,52.109375 Z M161.538415,36.1816406 C161.538415,35.7714823 161.677411,35.4274102 161.955407,35.1494141 C162.233403,34.8714179 162.577475,34.7324219 162.987634,34.7324219 C163.397792,34.7324219 163.7487,34.8714179 164.040368,35.1494141 C164.332036,35.4274102 164.477868,35.7714823 164.477868,36.1816406 C164.477868,36.5917989 164.332036,36.9427069 164.040368,37.234375 C163.7487,37.5260431 163.397792,37.671875 162.987634,37.671875 C162.577475,37.671875 162.233403,37.5260431 161.955407,37.234375 C161.677411,36.9427069 161.538415,36.5917989 161.538415,36.1816406 Z M168.363995,49.0878906 L168.363995,42.15625 C168.363995,41.7916648 168.181705,41.609375 167.81712,41.609375 L166.819073,41.609375 C166.691468,41.609375 166.627667,41.5045583 166.627667,41.2949219 C166.627667,41.0852854 166.691468,40.9804688 166.819073,40.9804688 C167.229232,40.9804688 167.653055,40.8186865 168.090558,40.4951172 C168.52806,40.1715479 168.89264,39.8160827 169.184308,39.4287109 C169.475976,39.0413392 169.694724,38.6699237 169.840558,38.3144531 C169.877016,38.2324215 169.940818,38.1914062 170.031964,38.1914062 C170.12311,38.1914062 170.216534,38.2141925 170.312237,38.2597656 C170.407941,38.3053388 170.455792,38.3691402 170.455792,38.4511719 L170.455792,39.7910156 C170.455792,40.1829447 170.642639,40.3789062 171.016339,40.3789062 L174.352276,40.3789062 C174.479881,40.3789062 174.543683,40.5839823 174.543683,40.9941406 C174.543683,41.4042989 174.479881,41.609375 174.352276,41.609375 L171.016339,41.609375 C170.642639,41.609375 170.455792,41.7916648 170.455792,42.15625 L170.455792,47.6660156 C170.455792,48.860032 170.626689,49.712237 170.968487,50.2226562 C171.310286,50.7330755 171.877663,50.9882812 172.670636,50.9882812 C173.144596,50.9882812 173.636779,50.8105487 174.147198,50.4550781 C174.201886,50.4186196 174.254294,50.4003906 174.304425,50.4003906 C174.354555,50.4003906 174.406964,50.4505203 174.461651,50.5507812 C174.516339,50.6510422 174.543683,50.7330726 174.543683,50.796875 C174.543683,50.8606774 174.534568,50.9062499 174.516339,50.9335938 C173.75071,51.8541713 172.748116,52.3144531 171.508526,52.3144531 C170.369198,52.3144531 169.560287,52.0660832 169.081769,51.5693359 C168.603251,51.0725887 168.363995,50.2454485 168.363995,49.0878906 Z M188.75539,52.109375 C188.062678,52.036458 187.210473,52 186.19875,52 C185.187026,52 184.312034,52.036458 183.57375,52.109375 C183.446145,52.109375 183.382343,51.9794935 183.382343,51.7197266 C183.382343,51.4599596 183.446145,51.3300781 183.57375,51.3300781 C184.603703,51.3300781 185.118671,50.9746129 185.118671,50.2636719 L185.118671,44.1933594 C185.118671,42.9355406 184.699405,42.3066406 183.860859,42.3066406 C183.70591,42.3066406 183.628437,42.1790377 183.628437,41.9238281 C183.628437,41.6686185 183.70591,41.5410156 183.860859,41.5410156 C184.161642,41.5410156 184.605973,41.3860693 185.193867,41.0761719 C185.78176,40.7662745 186.226092,40.497397 186.526875,40.2695312 C186.827657,40.0416655 187.028176,39.9277344 187.128437,39.9277344 C187.237813,39.9277344 187.2925,40.0006503 187.2925,40.1464844 C187.237812,41.1308643 187.210468,41.8873671 187.210468,42.4160156 L187.210468,50.2636719 C187.210468,50.9746129 187.725437,51.3300781 188.75539,51.3300781 C188.882995,51.3300781 188.946796,51.4599596 188.946796,51.7197266 C188.946796,51.9794935 188.882995,52.109375 188.75539,52.109375 Z M184.421406,36.1816406 C184.421406,35.7714823 184.560402,35.4274102 184.838398,35.1494141 C185.116394,34.8714179 185.460466,34.7324219 185.870625,34.7324219 C186.280783,34.7324219 186.631691,34.8714179 186.923359,35.1494141 C187.215027,35.4274102 187.360859,35.7714823 187.360859,36.1816406 C187.360859,36.5917989 187.215027,36.9427069 186.923359,37.234375 C186.631691,37.5260431 186.280783,37.671875 185.870625,37.671875 C185.460466,37.671875 185.116394,37.5260431 184.838398,37.234375 C184.560402,36.9427069 184.421406,36.5917989 184.421406,36.1816406 Z M201.678627,50.2636719 C201.678627,50.9746129 202.20271,51.3300781 203.250892,51.3300781 C203.378497,51.3300781 203.442299,51.4599596 203.442299,51.7197266 C203.442299,51.9794935 203.378497,52.109375 203.250892,52.109375 C202.549066,52.036458 201.696861,52 200.694252,52 C199.691643,52 198.821209,52.036458 198.082924,52.109375 C197.955319,52.109375 197.891517,51.9794935 197.891517,51.7197266 C197.891517,51.4599596 197.955319,51.3300781 198.082924,51.3300781 C199.085533,51.3300781 199.58683,50.9746129 199.58683,50.2636719 L199.58683,44.7539062 C199.58683,43.9882774 199.52075,43.3388699 199.388588,42.8056641 C199.256426,42.2724583 199.049071,41.8942068 198.766517,41.6708984 C198.483964,41.44759 197.987224,41.3359375 197.276283,41.3359375 C196.893469,41.3359375 196.547118,41.4134107 196.237221,41.5683594 C195.927323,41.7233081 195.624266,41.9078765 195.328041,42.1220703 C195.031815,42.3362641 194.781167,42.6005844 194.576088,42.9150391 C194.371009,43.2294938 194.268471,43.5690086 194.268471,43.9335938 L194.268471,50.2636719 C194.268471,50.9746129 194.756096,51.3300781 195.731361,51.3300781 C195.858966,51.3300781 195.922767,51.4599596 195.922767,51.7197266 C195.922767,51.9794935 195.858966,52.109375 195.731361,52.109375 C195.029535,52.036458 194.17733,52 193.174721,52 C192.172111,52 191.315349,52.036458 190.604408,52.109375 C190.476803,52.109375 190.413002,51.9794935 190.413002,51.7197266 C190.413002,51.4599596 190.476803,51.3300781 190.604408,51.3300781 C191.65259,51.3300781 192.176674,50.9746129 192.176674,50.2636719 L192.176674,44.1523438 C192.176674,42.9856712 191.793865,42.4023438 191.028236,42.4023438 C190.873287,42.4023438 190.795814,42.2747409 190.795814,42.0195312 C190.795814,41.7643216 190.873287,41.6367188 191.028236,41.6367188 C191.374592,41.6367188 191.773351,41.5000014 192.224525,41.2265625 C192.675699,40.9531236 193.069901,40.6682958 193.407142,40.3720703 C193.744384,40.0758449 193.98136,39.9277344 194.11808,39.9277344 C194.245685,39.9277344 194.309486,39.9983717 194.309486,40.1396484 C194.309486,40.2809252 194.300372,40.4723295 194.282142,40.7138672 C194.263913,40.9554049 194.254799,41.1695954 194.254799,41.3564453 C194.254799,41.5432952 194.323157,41.6367188 194.459877,41.6367188 C194.532794,41.6367188 194.601152,41.6093753 194.664955,41.5546875 C195.64022,40.5885368 196.820547,40.1054688 198.205971,40.1054688 C199.554936,40.1054688 200.562087,40.7753839 201.227455,42.1152344 C201.528238,42.7167999 201.678627,43.8469969 201.678627,45.5058594 L201.678627,50.2636719 Z M214.112991,49.0878906 L214.112991,42.15625 C214.112991,41.7916648 213.930701,41.609375 213.566116,41.609375 L212.568069,41.609375 C212.440464,41.609375 212.376662,41.5045583 212.376662,41.2949219 C212.376662,41.0852854 212.440464,40.9804688 212.568069,40.9804688 C212.978227,40.9804688 213.402051,40.8186865 213.839553,40.4951172 C214.277055,40.1715479 214.641635,39.8160827 214.933303,39.4287109 C215.224971,39.0413392 215.443719,38.6699237 215.589553,38.3144531 C215.626012,38.2324215 215.689813,38.1914062 215.780959,38.1914062 C215.872106,38.1914062 215.965529,38.2141925 216.061233,38.2597656 C216.156936,38.3053388 216.204787,38.3691402 216.204787,38.4511719 L216.204787,39.7910156 C216.204787,40.1829447 216.391634,40.3789062 216.765334,40.3789062 L220.101272,40.3789062 C220.228877,40.3789062 220.292678,40.5839823 220.292678,40.9941406 C220.292678,41.4042989 220.228877,41.609375 220.101272,41.609375 L216.765334,41.609375 C216.391634,41.609375 216.204787,41.7916648 216.204787,42.15625 L216.204787,47.6660156 C216.204787,48.860032 216.375684,49.712237 216.717483,50.2226562 C217.059281,50.7330755 217.626658,50.9882812 218.419631,50.9882812 C218.893592,50.9882812 219.385774,50.8105487 219.896194,50.4550781 C219.950881,50.4186196 220.00329,50.4003906 220.05342,50.4003906 C220.103551,50.4003906 220.155959,50.4505203 220.210647,50.5507812 C220.265335,50.6510422 220.292678,50.7330726 220.292678,50.796875 C220.292678,50.8606774 220.283564,50.9062499 220.265334,50.9335938 C219.499705,51.8541713 218.497111,52.3144531 217.257522,52.3144531 C216.118193,52.3144531 215.309282,52.0660832 214.830764,51.5693359 C214.352246,51.0725887 214.112991,50.2454485 214.112991,49.0878906 Z M233.174899,50.2636719 C233.174899,50.9746129 233.753669,51.3300781 234.911227,51.3300781 C235.038832,51.3300781 235.102633,51.4599596 235.102633,51.7197266 C235.102633,51.9794935 235.038832,52.109375 234.911227,52.109375 C234.163828,52.036458 233.261493,52 232.204196,52 C231.146899,52 230.258236,52.036458 229.53818,52.109375 C229.410575,52.109375 229.346774,51.9794935 229.346774,51.7197266 C229.346774,51.4599596 229.410575,51.3300781 229.53818,51.3300781 C230.568133,51.3300781 231.083102,50.9746129 231.083102,50.2636719 L231.083102,44.5214844 C231.083102,43.6373654 230.814225,42.8854198 230.276461,42.265625 C229.738698,41.6458302 229.087012,41.3359375 228.321383,41.3359375 C227.555755,41.3359375 226.881282,41.5683571 226.297946,42.0332031 C225.71461,42.4980492 225.422946,42.9537738 225.422946,43.4003906 L225.422946,50.2636719 C225.422946,50.9746129 225.9288,51.3300781 226.940524,51.3300781 C227.068129,51.3300781 227.13193,51.4599596 227.13193,51.7197266 C227.13193,51.9794935 227.068129,52.109375 226.940524,52.109375 C225.983488,52.036458 225.049252,52 224.13779,52 C223.226327,52 222.406022,52.036458 221.676852,52.109375 C221.549247,52.109375 221.485446,51.9794935 221.485446,51.7197266 C221.485446,51.4599596 221.549247,51.3300781 221.676852,51.3300781 C222.779722,51.3300781 223.331149,50.9746129 223.331149,50.2636719 L223.331149,35.9492188 C223.331149,34.6822853 222.911882,34.0488281 222.073336,34.0488281 C221.918388,34.0488281 221.840915,33.9235039 221.840915,33.6728516 C221.840915,33.4221993 221.918388,33.296875 222.073336,33.296875 C222.374119,33.296875 222.818451,33.1419286 223.406344,32.8320312 C223.994238,32.5221339 224.438569,32.2486991 224.739352,32.0117188 C225.03102,31.7747384 225.231539,31.65625 225.340915,31.65625 C225.45029,31.65625 225.504977,31.6972652 225.504977,31.7792969 C225.504977,31.8613285 225.491305,32.1461564 225.463961,32.6337891 C225.436618,33.1214217 225.422946,33.6295546 225.422946,34.1582031 L225.422946,41.1855469 C225.422946,41.4134126 225.495862,41.5273438 225.641696,41.5273438 C225.723728,41.5273438 225.801201,41.4908858 225.874118,41.4179688 C226.703549,40.5429644 227.801845,40.1054688 229.16904,40.1054688 C230.490661,40.1054688 231.488698,40.5862582 232.16318,41.5478516 C232.837663,42.5094449 233.174899,43.4915314 233.174899,44.4941406 L233.174899,50.2636719 Z M236.049307,46.1074219 C236.049307,44.4850179 236.566555,43.0791075 237.601065,41.8896484 C238.635576,40.7001894 239.795395,40.1054688 241.080557,40.1054688 C242.36572,40.1054688 243.404772,40.5520789 244.197745,41.4453125 C244.990718,42.3385461 245.387198,43.0677055 245.387198,43.6328125 C245.387198,44.1979195 245.154778,44.485026 244.689932,44.4941406 L238.551261,44.4941406 C238.277822,44.4941406 238.141104,44.7949189 238.141104,45.3964844 C238.141104,46.854825 238.489734,48.1057891 239.187003,49.1494141 C239.884272,50.1930391 240.848129,50.7148438 242.078604,50.7148438 C242.999182,50.7148438 243.915188,50.441409 244.826651,49.8945312 C244.872224,49.8671874 244.922354,49.8535156 244.977042,49.8535156 C245.086417,49.8535156 245.18212,49.9036453 245.264151,50.0039062 C245.327954,50.0677087 245.359854,50.1634108 245.359854,50.2910156 C245.359854,50.3365888 245.341625,50.3730467 245.305167,50.4003906 C243.865055,51.6764387 242.447752,52.3144531 241.053214,52.3144531 C239.658675,52.3144531 238.47607,51.6855532 237.505362,50.4277344 C236.534654,49.1699156 236.049307,47.7298258 236.049307,46.1074219 Z M238.455557,43.3867188 C238.455557,43.5143236 238.564931,43.578125 238.783682,43.578125 L243.172354,43.578125 C243.309074,43.578125 243.377432,43.5006518 243.377432,43.3457031 C243.377432,42.9446595 243.129063,42.4388051 242.632315,41.828125 C242.135568,41.2174449 241.618321,40.9121094 241.080557,40.9121094 C240.488107,40.9121094 239.975416,41.1103496 239.542471,41.5068359 C239.109527,41.9033223 238.760897,42.4615849 238.496573,43.1816406 C238.469229,43.2545577 238.455557,43.3229163 238.455557,43.3867188 Z M266.489531,46.1210938 C266.489531,48.1080829 265.981398,49.6370389 264.965117,50.7080078 C263.948835,51.7789767 262.606726,52.3144531 260.938749,52.3144531 C260.400986,52.3144531 259.694613,52.1048198 258.819609,51.6855469 C258.600858,51.5944006 258.336537,51.5488281 258.02664,51.5488281 C257.716743,51.5488281 257.279247,51.8040339 256.71414,52.3144531 C256.686796,52.3326824 256.645781,52.3417969 256.591093,52.3417969 C256.536405,52.3417969 256.440703,52.3144534 256.303984,52.2597656 C256.02143,52.1503901 255.880156,52.0638024 255.880156,52 C255.916614,51.4440076 255.934843,50.2591237 255.934843,48.4453125 L255.934843,35.8945312 C255.934843,34.6822856 255.515576,34.0761719 254.677031,34.0761719 C254.522082,34.0761719 254.444609,33.9508476 254.444609,33.7001953 C254.444609,33.449543 254.522082,33.3242188 254.677031,33.3242188 C254.904896,33.3242188 255.383407,33.1373717 256.112577,32.7636719 C256.841748,32.3899721 257.299751,32.1188159 257.486601,31.9501953 C257.673451,31.7815747 257.821561,31.6972656 257.930937,31.6972656 C258.040312,31.6972656 258.099557,31.8111968 258.108671,32.0390625 L258.02664,33.734375 L258.02664,40.5703125 C258.02664,40.8164075 258.085884,40.9394531 258.204374,40.9394531 C258.286406,40.9394531 258.377551,40.9121096 258.477812,40.8574219 C259.334587,40.3561173 260.136662,40.1054688 260.884062,40.1054688 C262.488237,40.1054688 263.82351,40.7047466 264.889921,41.9033203 C265.956333,43.101894 266.489531,44.5078044 266.489531,46.1210938 Z M264.110624,46.3398438 C264.110624,44.9179616 263.761995,43.7034556 263.064726,42.6962891 C262.367457,41.6891226 261.462843,41.1855469 260.350859,41.1855469 C259.567001,41.1855469 258.897085,41.4134092 258.341093,41.8691406 C258.131457,42.0332039 258.02664,42.4615851 258.02664,43.1542969 L258.02664,47.8847656 C258.02664,48.6230506 258.370712,49.4091755 259.058867,50.2431641 C259.747021,51.0771526 260.528589,51.4941406 261.403593,51.4941406 C262.278597,51.4941406 262.948513,50.9905649 263.413359,49.9833984 C263.878205,48.9762319 264.110624,47.7617259 264.110624,46.3398438 Z M268.502611,46.1484375 C268.502611,44.6171798 269.072267,43.2272198 270.211595,41.9785156 C271.350924,40.7298115 272.71354,40.1054688 274.299486,40.1054688 C275.885431,40.1054688 277.229819,40.7298115 278.332689,41.9785156 C279.435559,43.2272198 279.986986,44.6536378 279.986986,46.2578125 C279.986986,47.8619872 279.481132,49.2724549 278.469408,50.4892578 C277.457684,51.7060608 276.104182,52.3144531 274.408861,52.3144531 C272.71354,52.3144531 271.305351,51.6696028 270.184252,50.3798828 C269.063152,49.0901628 268.502611,47.6796952 268.502611,46.1484375 Z M270.731127,46.2304688 C270.731127,47.8528727 271.102542,49.1220657 271.845384,50.0380859 C272.588227,50.9541061 273.388023,51.4121094 274.244798,51.4121094 C275.119803,51.4121094 275.924157,50.9495489 276.657884,50.0244141 C277.391612,49.0992792 277.75847,47.8346434 277.75847,46.2304688 C277.75847,44.6262941 277.393891,43.3411507 276.66472,42.375 C275.93555,41.4088493 275.138032,40.921224 274.272142,40.9121094 C273.397138,40.9121094 272.588227,41.3928988 271.845384,42.3544922 C271.102542,43.3160855 270.731127,44.6080648 270.731127,46.2304688 Z M281.740301,42.0058594 C281.475976,41.3496061 281.00658,41.0214844 280.332097,41.0214844 C280.204493,41.0214844 280.140691,40.9007174 280.140691,40.6591797 C280.140691,40.417642 280.204493,40.296875 280.332097,40.296875 C280.860746,40.3515628 281.662821,40.3789062 282.738347,40.3789062 C283.813874,40.3789062 284.629621,40.3515628 285.185613,40.296875 C285.313218,40.296875 285.377019,40.417642 285.377019,40.6591797 C285.377019,40.9007174 285.313218,41.0214844 285.185613,41.0214844 C284.474672,41.0214844 284.119207,41.2721329 284.119207,41.7734375 C284.119207,41.9283862 284.137436,42.0605463 284.173894,42.1699219 L286.361394,48.8691406 C286.416082,49.0332039 286.479884,49.1152344 286.552801,49.1152344 C286.625718,49.1152344 286.689519,49.0332039 286.744207,48.8691406 L288.794988,42.921875 C288.849676,42.7395824 288.877019,42.6119795 288.877019,42.5390625 C288.877019,42.0012994 288.6446,41.5729183 288.179754,41.2539062 C287.933659,41.0989576 287.651109,41.0214844 287.332097,41.0214844 C287.204493,41.0214844 287.140691,40.9007174 287.140691,40.6591797 C287.140691,40.417642 287.204493,40.296875 287.332097,40.296875 C287.860746,40.3515628 288.662821,40.3789062 289.738347,40.3789062 C290.813874,40.3789062 291.629621,40.3515628 292.185613,40.296875 C292.313218,40.296875 292.377019,40.417642 292.377019,40.6591797 C292.377019,40.9007174 292.313218,41.0214844 292.185613,41.0214844 C291.474672,41.0214844 291.119207,41.2721329 291.119207,41.7734375 C291.119207,41.9283862 291.137436,42.0605463 291.173894,42.1699219 L293.361394,48.8691406 C293.416082,49.0332039 293.479884,49.1152344 293.552801,49.1152344 C293.625718,49.1152344 293.689519,49.0332039 293.744207,48.8691406 L296.068426,42.0605469 C296.104884,41.9694006 296.123113,41.8645839 296.123113,41.7460938 C296.123113,41.2630184 295.685617,41.0214844 294.810613,41.0214844 C294.683008,41.0214844 294.619207,40.9007174 294.619207,40.6591797 C294.619207,40.417642 294.683008,40.296875 294.810613,40.296875 C295.330147,40.3515628 295.981833,40.3789062 296.765691,40.3789062 C297.549549,40.3789062 298.214907,40.3515628 298.761785,40.296875 C298.88939,40.296875 298.953191,40.417642 298.953191,40.6591797 C298.953191,40.9007174 298.88939,41.0214844 298.761785,41.0214844 C297.886781,41.0214844 297.335354,41.3496061 297.107488,42.0058594 L293.689519,51.78125 C293.571029,52.1367205 293.379625,52.3144531 293.115301,52.3144531 C292.850976,52.3144531 292.668687,52.1914075 292.568426,51.9453125 L289.656316,44.4394531 C289.583399,44.2571605 289.519598,44.1660156 289.46491,44.1660156 C289.410222,44.1660156 289.346421,44.2571605 289.273504,44.4394531 L286.689519,51.78125 C286.571029,52.1367205 286.379625,52.3144531 286.115301,52.3144531 C285.850976,52.3144531 285.668687,52.1914075 285.568426,51.9453125 L281.740301,42.0058594 Z M303.099084,50.2636719 C303.099084,50.9746129 303.641396,51.3300781 304.726037,51.3300781 C304.853642,51.3300781 304.917443,51.4599596 304.917443,51.7197266 C304.917443,51.9794935 304.853642,52.109375 304.726037,52.109375 C304.024211,52.036458 303.144662,52 302.087365,52 C301.030068,52 300.136848,52.036458 299.407678,52.109375 C299.280073,52.109375 299.216272,51.9794935 299.216272,51.7197266 C299.216272,51.4599596 299.280073,51.3300781 299.407678,51.3300781 C300.474089,51.3300781 301.007287,50.9746129 301.007287,50.2636719 L301.007287,35.9902344 C301.007287,34.7141863 300.588021,34.0761719 299.749475,34.0761719 C299.594526,34.0761719 299.517053,33.9508476 299.517053,33.7001953 C299.517053,33.449543 299.594526,33.3242188 299.749475,33.3242188 C300.168748,33.3242188 300.920693,32.9869825 302.005334,32.3125 C302.315231,32.1210928 302.543094,31.9707037 302.688928,31.8613281 C302.834762,31.7519526 302.95325,31.6972656 303.044397,31.6972656 C303.135543,31.6972656 303.181115,31.7656243 303.181115,31.9023438 C303.126428,32.4218776 303.099084,32.8639305 303.099084,33.2285156 L303.099084,50.2636719 Z M312.289899,43.9609375 C312.289899,46.3489703 311.770373,48.6731658 310.731305,50.9335938 C309.692237,53.1940217 308.356964,55.0989506 306.725446,56.6484375 C306.579612,56.7760423 306.417829,56.8398438 306.240094,56.8398438 C306.062359,56.8398438 305.916527,56.789714 305.802594,56.6894531 C305.688661,56.5891922 305.631696,56.49349 305.631696,56.4023438 C305.631696,56.3111975 305.713726,56.1562511 305.877789,55.9375 C308.885617,52.7838384 310.389508,48.7916908 310.389508,43.9609375 C310.389508,39.1757573 308.867388,35.1790525 305.823102,31.9707031 C305.695497,31.8430983 305.631696,31.7063809 305.631696,31.5605469 C305.631696,31.4147128 305.704612,31.298503 305.850446,31.2119141 C305.99628,31.1253251 306.132997,31.0820312 306.260602,31.0820312 C306.388207,31.0820312 306.543153,31.1549472 306.725446,31.3007812 C308.484569,32.8867267 309.851743,34.6708885 310.827008,36.6533203 C311.802273,38.6357521 312.289899,41.0716001 312.289899,43.9609375 Z" id="(putthefuitinthebowl)" fill="#000000" opacity="0.849999964"></path>
        </g>
    </g>
</svg>